<?xml version="1.0" encoding="UTF-8"?>
<svg id="Layer_2" xmlns="http://www.w3.org/2000/svg" viewBox="0 0 41.67 25">
  <defs>
    <style>
      .cls-1 {
        fill: #231f20;
      }
    </style>
  </defs>
  <g id="Layer_1-2" data-name="Layer_1">
    <path class="cls-1" d="M4.96,23.8c3.05.97,3.56-6.18,6.72-6.65.35-.05.31-.06.64.05,2.22.78.66,6.51,2.76,7.47.41.19,1.38.22,1.77,0,1.76-.99,2.14-4.16,2.65-6.34,1.34-.78,4.58.14,6.29-.32.98.66,1.12,2.98,2.27,3.22.54.12,1.03-.43,1.55-.64.48.36.86,1,1.44,1.07.55.07,1.03-.43,1.55-.64.83.87.97,3.11,2.14,3.65.82.38,2.83.5,3.58,0,2.97-1.96,0-5.91,3.35-8.38-.75-5.56-2.14-12.93-6.08-15.26-1.15-.68-7.4.33-8.87.54-3.87.54-6.58-1.99-10.42-1.51-.88.11-1.77.28-2.58.64-2.62,1.18-4.82,9.25-7.53,10.21-2.43.86-3.73-1.94-5.57-.86-.57.34-.77,1.76-.52,2.9.33,1.46,1.62,2.17,2.06,3.33,1.14,3.02.07,6.65,2.78,7.51"/>
  </g>
</svg>