<?xml version="1.0" encoding="UTF-8"?>
<svg id="Layer_2" xmlns="http://www.w3.org/2000/svg" viewBox="0 0 21.83 30.57">
  <defs>
    <style>
      .cls-1 {
        fill: #231f20;
      }
    </style>
  </defs>
  <g id="Layer_1-2" data-name="Layer_1">
    <path class="cls-1" d="M1.37,27.97c0,1.43,4.23,2.59,9.45,2.59s9.45-1.16,9.45-2.59c0-.09-.12-.4-.12-.42-.02-.11-2.45-3.1-2.59-8,1.13-.58,1.82-1.3,1.82-2.09,0-.71-.54-1.36-1.47-1.91.78-4.47,2.65-8.42,3.33-9.86.37-.36.6-.85.6-1.39,0-1.12-.96-2.03-2.15-2.03-.45,0-.87.13-1.22.36-.05-1.08-.99-1.93-2.14-1.93-.6,0-1.15.23-1.54.61-.31-.77-1.09-1.31-2.01-1.31-.8,0-1.49.42-1.86,1.03-.37-.61-1.06-1.03-1.86-1.03-.92,0-1.7.55-2.01,1.31-.39-.38-.93-.61-1.54-.61-1.15,0-2.09.86-2.14,1.93-.35-.22-.76-.36-1.22-.36-1.19,0-2.15.91-2.15,2.03,0,.31.08.6.21.86.15.49,2.7,4.95,3.7,10.29-1.04.56-1.65,1.25-1.65,2,0,.84.76,1.6,2.02,2.19-.22,4.84-2.88,8.21-2.88,8.21"/>
  </g>
</svg>