<?xml version="1.0" encoding="UTF-8"?>
<svg id="Layer_2" xmlns="http://www.w3.org/2000/svg" viewBox="0 0 33.73 22.49">
  <defs>
    <style>
      .cls-1 {
        fill: #231f20;
      }
    </style>
  </defs>
  <g id="Layer_1-2" data-name="Layer_1">
    <path class="cls-1" d="M5.52,15.75c.88.23,1.89.29,2.61.83,1.23.93.56,4.5,1.87,5.33.2.13.38.3.59.35.96.25,3.05.36,3.97,0,.89-.35,1.23-1.77,1.67-3.43.32-1.23,4.7-1.09,6.17-.36,1.49.78.22,3.42,1.83,3.79.97.22,3,.15,3.98,0,.93-.14,1.62-.74,1.96-1.3.21-.71.42-2.08.62-2.79.78-1.23,2.44-1.08,2.86-2.78.32-1.3-.46-2.03-.62-2.73-.29-1.22.53-2.26.12-3.67-.34-1.21-1.17-1.72-2.05-2.33.03-.21.05-.41.05-.63,0-2.43-2.07-4.41-4.63-4.41-.92,0-1.77.26-2.49.7-.76-1.39-2.29-2.33-4.04-2.33-1.91,0-3.55,1.12-4.23,2.71-.59-.65-1.45-1.07-2.43-1.07-1.43,0-2.62.89-3.04,2.11-.92-.25-1.91-.68-2.9-.32-1.71.63.25,3.59-1.28,4.34-1.9.93-8.25,3.03-5.37,6.97,1.32,1.8,2.79.49,4.79,1.01"/>
  </g>
</svg>