<?xml version="1.0" encoding="UTF-8"?>
<svg id="Layer_2" xmlns="http://www.w3.org/2000/svg" viewBox="0 0 27.07 25.8">
  <g id="Layer_1-2" data-name="Layer_1">
    <path d="M25.35,16.2s2.41-3.86,1.53-4.91c-1.09-1.31-7.14-3.99-7.96-4.22-.26-.08-.52-.16-.77-.23.06-.3.1-.61.1-.93,0-.68-.15-1.33-.41-1.91,1.23-.75,1.92-1.63,1.74-2.38-.31-1.31-3.24-2.07-6.43-1.3-3.19.77-5.1,2.1-5.61,3.64-.18.56.4,1.03,1.37,1.33-.03.2-.04.41-.04.62,0,.32.03.63.1.93-.25.07-.51.15-.77.23-.82.23-6.94,3.17-7.96,4.22-.96.98,1.53,4.91,1.53,4.91,1.32-.05,2.35-.32,4.19-.49-1.41,1.52-4.92,5.56-2.84,6.1.64.16,1.51.31,2.54.44-.33.48-.55.78-.55.78,0,0-1.78.84-1.5,2.18.06.27.13.45.22.59h6.09c1-.6,1.46-1.93,2.04-3.09,1.04.04,2.1.06,3.13.06.56,1.15,1.02,2.44,2.01,3.03h6.09c.1-.14.17-.33.23-.59.28-1.34-1.5-2.18-1.5-2.18,0,0-.15-.21-.4-.55,1.48-.18,2.58-.43,3.06-.79,1.73-1.3-1.98-4.46-3.37-5.97,1.87.26,3.01.27,4.16.48"/>
  </g>
</svg>