<?xml version="1.0" encoding="UTF-8"?>
<svg id="Layer_2" xmlns="http://www.w3.org/2000/svg" viewBox="0 0 19.84 23.56">
  <defs>
    <style>
      .cls-1 {
        fill: #231f20;
      }
    </style>
  </defs>
  <g id="Layer_1-2" data-name="Layer_1">
    <path class="cls-1" d="M19.84,6.42v-3.3c0-.52-.43-.95-.95-.95h-1.1c-.21-.76-.44-1.48-.7-2.17H2.74c-.26.69-.49,1.42-.7,2.17H.95c-.52,0-.95.42-.95.95v3.3c0,.52.43.95.95.95h.11c-.16,1.42-.25,2.9-.25,4.42s.09,3,.25,4.42h-.11c-.52,0-.95.42-.95.94v3.3c0,.52.43.95.95.95h1.1c.21.76.44,1.48.7,2.17h14.36c.26-.69.49-1.42.7-2.17h1.1c.52,0,.95-.42.95-.95v-3.3c0-.52-.43-.94-.95-.94h-.11c.16-1.42.25-2.9.25-4.42s-.09-3-.25-4.42h.11c.52,0,.95-.42.95-.95"/>
  </g>
</svg>